<svg width="17" height="19" viewBox="0 0 17 19" fill="none" xmlns="http://www.w3.org/2000/svg">
<path d="M13.8328 12.5775C13.0491 12.5766 12.297 12.8798 11.741 13.4209L7.82247 11.2043C8.07407 10.6669 8.19119 10.0784 8.16412 9.48768C8.13705 8.897 7.96657 8.32116 7.66683 7.80796L11.693 5.53038C12.2068 6.0494 12.8997 6.36192 13.6363 6.40678C14.3729 6.45165 15.1 6.22562 15.6755 5.77294C16.2509 5.32026 16.6332 4.6735 16.7475 3.95923C16.8619 3.24496 16.7001 2.5146 16.2937 1.91106C15.8874 1.30752 15.2658 0.874244 14.5506 0.696026C13.8354 0.517808 13.078 0.607472 12.4267 0.947472C11.7754 1.28747 11.2771 1.85334 11.0292 2.53433C10.7813 3.21532 10.8017 3.96243 11.0864 4.62945L6.97757 6.95234C6.27509 6.30024 5.3439 5.93721 4.37616 5.93815C2.2817 5.93815 0.583008 7.60234 0.583008 9.65338C0.582977 10.4085 0.817807 11.1457 1.25621 11.7667C1.69462 12.3878 2.31578 12.8632 3.03695 13.1297C3.75812 13.3962 4.54506 13.4411 5.29291 13.2584C6.04077 13.0756 6.71404 12.674 7.22303 12.107L11.114 14.307C10.8533 14.8813 10.7891 15.5228 10.931 16.1358C11.0728 16.7488 11.4132 17.3004 11.9012 17.7084C12.3892 18.1165 12.9988 18.359 13.639 18.3999C14.2792 18.4408 14.9158 18.2778 15.4537 17.9353C15.9917 17.5928 16.4022 17.0891 16.6241 16.4994C16.846 15.9096 16.8673 15.2654 16.6849 14.6628C16.5026 14.0602 16.1262 13.5315 15.6121 13.1555C15.0979 12.7795 14.4735 12.5765 13.8319 12.5766L13.8328 12.5775Z" fill="white"/>
</svg>
